<?xml version="1.0" standalone="no"?>
<svg xmlns="http://www.w3.org/2000/svg" width="24" height="24"><rect width="24" height="24" opacity="0"></rect><g><path d="M6.22 1.01Q5.35 1.01 4.61 1.45Q3.86 1.9 3.42 2.64Q2.98 3.38 2.98 4.25L2.98 19.75Q2.98 20.64 3.42 21.38Q3.86 22.13 4.61 22.56Q5.35 22.99 6.22 22.99L17.76 22.99Q18.65 22.99 19.39 22.56Q20.14 22.13 20.58 21.38Q21.02 20.64 21.02 19.75L21.02 7.25L14.76 1.01L6.22 1.01ZM15.48 7.25Q15.17 7.25 14.95 7.02Q14.74 6.79 14.74 6.48L14.74 3.1L18.89 7.25L15.48 7.25ZM6.22 21.5Q5.5 21.5 4.98 20.99Q4.46 20.47 4.46 19.75L4.46 4.25Q4.46 3.53 4.98 3.01Q5.5 2.5 6.22 2.5L13.22 2.5L13.22 6.48Q13.22 7.1 13.52 7.62Q13.82 8.14 14.34 8.44Q14.86 8.74 15.48 8.74L19.51 8.74L19.51 19.75Q19.51 20.47 19 20.99Q18.48 21.5 17.76 21.5L6.22 21.5ZM11.52 12Q11.83 12 12.06 11.78Q12.29 11.57 12.29 11.26Q12.29 10.94 12.06 10.72Q11.83 10.49 11.52 10.49L7.51 10.49Q7.22 10.49 7 10.72Q6.77 10.94 6.77 11.26Q6.77 11.57 7 11.78Q7.22 12 7.51 12L11.52 12ZM7.51 14.76Q7.22 14.76 7 14.98Q6.77 15.19 6.77 15.5Q6.77 15.82 7 16.03Q7.22 16.25 7.51 16.25L16.49 16.25Q16.8 16.25 17.02 16.03Q17.23 15.82 17.23 15.5Q17.23 15.19 17.02 14.98Q16.8 14.76 16.49 14.76L7.51 14.76Z" fill="rgba(10,89,247,1)"></path></g></svg>